<?xml version="1.0" encoding="UTF-8"?>
<svg id="Layer_1" data-name="Layer 1" xmlns="http://www.w3.org/2000/svg" width="512" height="482.13" viewBox="0 0 512 482.13">
  <g id="Generative_Object" data-name="Generative Object">
    <g>
      <path d="M257.62,2.59c.35,14.64.62,33.16,9.72,45.37-9.07.13-18.46.74-27.54,1.3-.82-.63,2.42-10.74,2.92-12.31,3.9-12.37,9.81-24.83,13.93-36.94.28.93.59,1.71.97,2.59Z" fill="#f4721f"/>
      <path d="M269.93,37.59c1.13,3.58,2.48,7.2,3.89,10.69-.87,2.4-5.3-.34-6.48-.32-9.1-12.2-9.37-30.73-9.72-45.37,4.51,10.35,8.86,24.09,12.31,35Z" fill="#feb947"/>
    </g>
    <g>
      <g>
        <path d="M395.02,392.75c-.36-9.51-8.16-13.5-12.64-20.74-28.57,26.89-67.78,45.56-107.26,48.61-11.75.91-25.38-.48-37.27-.65-1.31.92,1.25,10.47,1.62,12.31.87,4.37,1.97,8.71,3.24,12.96-52.05-3.06-102.38-26.74-138.05-64.49-2.89-3.06-35.38-42.79-31.43-45.04h365.53c-8.68,22.78-25.79,41.11-43.75,57.03Z" fill="#0b809e"/>
        <path d="M395.02,392.75c-34.61,30.69-78.24,50.45-125.08,52.5,1.28-4.18,3-8.73,3.89-12.96.8-3.79,1.29-7.77,1.3-11.67,39.48-3.05,78.69-21.72,107.26-48.61,4.48,7.24,12.27,11.23,12.64,20.74Z" fill="#1097b1"/>
      </g>
      <g>
        <path d="M262.16,432.93l-4.54,46.66c-.46.94-.56,3.34-1.94,2.27-2.83-12.48-9.35-24.54-12.96-36.62-1.27-4.25-2.37-8.59-3.24-12.96,7.51-.69,15.24.65,22.68.65Z" fill="#f4721f"/>
        <path d="M273.82,432.28c-.89,4.23-2.61,8.78-3.89,12.96-2.92,9.55-8.06,25.71-12.31,34.35l4.54-46.66c3.68,0,7.85-1.34,11.67-.65Z" fill="#feb947"/>
        <path d="M275.12,420.62c0,3.89-.5,7.88-1.3,11.67-3.82-.69-7.98.65-11.67.65-7.44,0-15.17-1.34-22.68-.65-.37-1.85-2.93-11.39-1.62-12.31,11.88.16,25.52,1.56,37.27.65Z" fill="#fdfdfc"/>
      </g>
      <g>
        <path d="M91.71,147.12c-29.28,51.71-34.5,115.73-7.13,169.48l-33.05,9.07c12.48-2,26.96-.15,39.21-1.62.95-.11,4.94-.55,5.18-.65,1.17-.5.87-1.91.97-1.94,5.89-1.9,8.43-.75,14.58-1.3.63-.06,2.43-1.93,2.59-1.94,15.41-.96,33.56,2.1,49.26,1.3l.97,2.92c.9.84.59-.98.65-.97,3.68.26,31.23.66,32.73,0,1.91-.85.58-8.44.97-10.37l19.12.65c-1.62,5.61,1.79,10.09-.65,14.91,26.67-.26,53.38.35,80.04,0,4.46-.06,11.64,1.83,14.91-.65,6.9.85,14.11,1.71,21.06,1.94,47.28,1.56,94.68.83,140.64,1.94,8.98.22,18.38,2.19,27.87.65l-2.27-1.94,12.64,3.89c-170.56-5.03-341.52-6.47-512,1.3l65.78-19.77c-7.29-19.08-12.29-38.91-14.26-59.3,1.3.4,12.58,4.21,12.96,2.92-1.13-7.19-.58-14.48-.65-21.71-.02-2.37.05-4.76,0-7.13,4.54-.77,1.63-4.37,1.94-6.81,2.72-21.04,10.94-52.5,22.04-71.29.67-1.14,2.31-3.62,3.89-3.56Z" fill="#056983"/>
        <path d="M114.07,319.51c1.45-.64,30.3-.64,31.76,0s.89,2.96.97,4.21c-4.46-1.44-32.01,1.29-33.38.32-.65-.46-.65-3.96.65-4.54Z" fill="#fdfdfc"/>
      </g>
      <g>
        <path d="M448.16,257.94c1.17.69,10.95-2.61,12.96-3.24-1.54,20.2-6.37,40.03-14.26,58.65l52.5,15.23,2.27,1.94c-9.49,1.54-18.89-.43-27.87-.65-45.96-1.12-93.36-.38-140.64-1.94-6.95-.23-14.16-1.1-21.06-1.94,1.59-1.21,2.29-3.4,2.59-5.18l34.35-1.3c2.61.71,12.06.7,15.23.65.14,0,.95-1.93,1.94-1.94,11.83-.2,25.06.79,36.29,1.94,2.66.27,10.04-.62,11.67,0,1.29.49,1.61,4.08,2.59,4.54,2.36,1.09,7.55-.65,10.05-.65,12.41.02,24.62,1.21,36.94,2.27l-35-9.72c9.08-19.09,15.08-40.08,16.85-61.25,3.19-2.1.99,1.65,2.59,2.59Z" fill="#0b809e"/>
        <path d="M366.83,319.51c1.53-.64,31.56-.7,33.05,0,.58.27,1.69,3.38,1.62,3.56-.71,1.94-31.79-.63-35.97.32-.6-.32.48-3.55,1.3-3.89Z" fill="#fdfdfc"/>
      </g>
    </g>
    <g>
      <path d="M242.71,36.94c-.5,1.57-3.74,11.68-2.92,12.31,9.08-.56,18.47-1.17,27.54-1.3,1.18-.02,5.61,2.72,6.48.32-1.41-3.49-2.76-7.11-3.89-10.69,99.58,3.41,186.62,90.31,190.54,189.89-3.79-1.21-7.51-2.77-11.34-3.89-1.36.99.35,11.67.32,13.61-.1,6.86-.57,13.91-1.3,20.74-1.61-.94.59-4.7-2.59-2.59C462.27,56.05,190.87-28.02,91.71,147.12c-1.58-.05-3.22,2.43-3.89,3.56-11.1,18.79-19.32,50.25-22.04,71.29-.31,2.44,2.6,6.04-1.94,6.81-.03-1.54,1.87-3.58-.32-5.18-3.81,1.17-7.56,2.69-11.34,3.89,5.39-101.14,89.75-184.55,190.54-190.54Z" fill="#0b809e"/>
      <g>
        <path d="M63.84,235.91c.07,7.23-.48,14.53.65,21.71-.39,1.29-11.66-2.52-12.96-2.92-12.11-3.73-23.71-9.57-35.97-12.96-1.16-2.09,1.7-.97,2.27-1.3,16.08-1.21,29.01-10.54,46.02-4.54Z" fill="#f4721f"/>
        <path d="M63.84,228.78c.05,2.37-.02,4.76,0,7.13-17.01-6-29.93,3.33-46.02,4.54,8.69-4.89,24.51-9.84,34.35-12.96,3.79-1.2,7.53-2.72,11.34-3.89,2.19,1.6.29,3.65.32,5.18Z" fill="#feb947"/>
      </g>
      <g>
        <path d="M461.12,254.7c-2.02.63-11.79,3.93-12.96,3.24.72-6.82,1.2-13.88,1.3-20.74l25.28-4.54c7.78,2.84,15.87,5.06,23.33,8.75-12.42,3.99-24.52,9.38-36.94,13.29Z" fill="#f4721f"/>
        <path d="M460.48,227.48c4.85,1.54,9.5,3.44,14.26,5.18l-25.28,4.54c.03-1.94-1.69-12.62-.32-13.61,3.83,1.12,7.55,2.68,11.34,3.89Z" fill="#feb947"/>
      </g>
      <path d="M417.7,224.24l-.65.65c-1.38,1.18-7.92-.68-9.72-.65-2.18-20.06-8.55-39.68-18.15-57.36-1.79-3.3-12.84-17.66-12.96-18.79-.15-1.36,6.39-6.6,7.45-8.1,18.86,23.83,32,53.61,34.03,84.25Z" fill="#fdfdfc"/>
      <g>
        <path d="M421.59,278.04c.23,0,4.4-.78,4.54-.97.43-.61.15-13.11,0-14.91-.03-.32-1.93-1.64-1.94-1.94-.46-7.61,1.54-25.29,0-31.11-.75-2.83-4.2-3.74-6.48-4.86-2.02-30.64-15.17-60.42-34.03-84.25-1.06,1.5-7.6,6.74-7.45,8.1.12,1.14,11.17,15.5,12.96,18.79,9.6,17.67,15.97,37.3,18.15,57.36-14.12.28-46.2-1.65-57.68.65-2.28.46-5.15,1.65-5.83,4.21-1.77,6.62-1.2,48.8-.65,58.01l-11.67-4.54c.69-21.01-.52-42.16,0-63.19.64-1.3,2.71-.65,3.24-1.94s.39-25.64,0-27.22c-.29-1.16-1.59-1.83-2.59-2.27-3.46-18.13,3.14-42.5,0-59.95-1.09-6.08-5.68-7.84-11.02-8.75-2.4-.41-2.42.05-3.24,0-33.55-2.24-89.87-3.02-123.14-.65-3.27.23-2.41.62-2.59.65-6.92,1.14-10.27,2.26-11.67,10.05l.65,58.65c-.93.35-1.92.84-2.59,1.62-.64,1.65-1.18,26.58-.65,27.87s2.6.64,3.24,1.94c.5,21.46-.67,43.04,0,64.49l-11.67,5.83c.16-4.17-.33-8.49,0-12.64.05-.68,1.93-1.06,1.94-1.3.27-3.46.97-13.91-1.94-15.23-.26-7.7,2.45-24.72.65-31.43-.89-3.31-3.68-3.75-6.48-3.56-.21.01-.45-.05-.65,0,.04-2.27-.5-.66-1.3-.65-18.7.28-37.8-1.17-56.38-.65,2.72-22.13,10.14-43.38,21.39-62.54,1.8-3.06,12.85-16.42,12.96-17.5s-7.56-7.57-8.1-7.45c-15.8,19.06-27.1,41.8-33.38,65.78-1.54,5.88-1.77,18.07-3.24,22.36-1.2-.32-3.46.55-4.21,1.3-2.87,2.85-1.46,23.81-1.62,29.49-.1,3.67-3.02,18.93-1.3,21.39.12.16,3.69.96,3.89.97l-1.62,25.92c-38.83-88.76,10.92-194,98.51-229.43,145.26-58.76,293.29,85.52,233.96,230.72-2.45-9.35-2.57-17.69-.97-27.22Z" fill="#63c7e3"/>
        <path d="M247.57,78.42c34.31-1.66,70.7,8.33,99.16,27.22,3.34,2.21,26.25,20.43,26.25,22.36,0,.53-6.59,7.48-7.45,7.45-52.59-53.05-128.12-60.26-191.84-22.04-2.1,1.26-12.15,9.67-12.96,9.72-1,.06-7.6-7.53-7.45-8.1,26.51-20.92,60.24-34.97,94.3-36.62Z" fill="#fdfdfc"/>
        <path d="M321.13,119.25c-1.15,3.05-2.61,3.8-3.24,0,.82.05.84-.41,3.24,0Z" fill="#fdfdfc"/>
        <path d="M194.75,118.6c.48,3.75-1.88,4.1-2.59.65.18-.03-.68-.42,2.59-.65Z" fill="#fdfdfc"/>
        <path d="M163,225.54c-.12.03-1.23,1.9-1.3-.65.8-.01,1.33-1.62,1.3.65Z" fill="#fdfdfc"/>
      </g>
      <g>
        <path d="M445.57,255.35c-1.77,21.17-7.77,42.15-16.85,61.25l35,9.72c-12.32-1.06-24.53-2.25-36.94-2.27l-10.37-.97v-2.59c6.08,1.59,5.46-17.18,4.54-18.79-.43-.75-2.16.1-2.59-.65l-3.89-42.77.32-1.62,3.89,2.59c1.7-3.07-4.77-4.79-5.51-6.16-.32-.59-.07-4.54-1.3-6.48s-5.6-5.19-6.81-8.1c-.88.65.49,3.7-1.3,4.54-2.76,1.29-33.11-2.8-38.89,0l-1.3-4.54c-1.12,2.21-5.2,5.9-6.16,7.45-1.28,2.08-1.61,6.56-1.94,7.13-.63,1.08-11.73,7.71-1.62,3.56-.8,3.7.02,18.78-.97,21.06-.73,1.67-3.33.49-3.89,1.3-1.45,2.11.68,21.17,0,22.04-.59.75-2.16-.1-2.59.65-1.03,1.8-1.04,16.83,2.59,17.82l-34.35,1.3c.66-3.91-1.03-6.83.65-10.37,6.43-13.6,9.29-8.82,7.78-26.9-.43-5.17,2.41-11.99-3.89-12.31-.63-16.55.49-34.87-.65-51.2-.05-.67-1.93-1.07-1.94-1.3-.92-12.83-.38-25.62-3.24-38.24,4.05-.66,7.16,2.5,8.1,6.16,2.7-7.94-8.89-10.78-10.05-12.64-1.51-2.42-1.47-10.41-4.54-14.26-1.72-2.16-4.13-1.9-5.18-3.24-1.57-1.99-2.7-8.26-6.81-10.05v8.43h-76.48c-2.38-1,1.36-8.76.65-9.07-4.78,1.23-5.89,8.07-7.45,10.05-1.44,1.82-4.03,2.04-5.83,4.54-2.43,3.37-2.53,8.9-3.89,11.99-1.98,4.52-12.2,5.89-10.69,14.26,1.13-5.16,5.89-4.72,8.75-6.48l-3.24,38.56c-.49,1.04-3.32,1.29-4.54,1.62l.65-31.43c-3.04-2.15-5.23-1.38-8.43-.97v-61.25c6.46-13.67,9.15,4.16,11.99-6.81l120.55.65c1.17,8.71,4.18.94,5.18.65,3.14-.9,6.32,4.16,6.81,6.81,3.02,16.58-2.26,42.4,0,59.95-2.38-.29-7.94-1.72-9.07,1.62-2.11,6.25,1.91,23.15.65,30.46h8.43l.65,72.59c3.16-.72,1.85-7.04,1.94-10.05l11.67,4.54c.03.57.07,6.01,1.3,5.51.36-2.51-.08-14.1.65-15.55.42-.83,4.47,1.8,5.18,0,.3-.76.96-14.84.65-15.55-.85-1.95-5.19-.02-5.83-1.94-.49-1.48.21-29.62.65-31.11.38-1.28,2.58-1.83,3.24-2.27l68.7-.65c1.82.89,3.87,1.11,4.54,3.56.41,1.5.87,29.82,0,31.11-.43.63-3.67-.27-4.54,1.94-.67,1.73,1.66,12.72,1.3,15.55.35.58,1.94.31,2.59.32-1.6,9.53-1.48,17.87.97,27.22C481.88,160.05,333.86,15.77,188.6,74.53c-87.59,35.43-137.34,140.67-98.51,229.43l1.62-25.92c.17.01,3.05-.43,3.24-.97.42-1.19,1-14.86.65-15.55-.67-1.29-4.75-.67-5.18-1.3-.91-1.3,0-29.67.65-31.76.39-1.26,3.44-2.25,3.89-3.56,1.47-4.29,1.7-16.48,3.24-22.36,6.28-23.98,17.57-46.72,33.38-65.78.54-.12,8.22,6.33,8.1,7.45s-11.17,14.44-12.96,17.5c-11.25,19.16-18.66,40.41-21.39,62.54-2.5.07-5.43,1.28-8.1.65l-.97,1.3c-1.32,1.42-.28.84.65.65,1-.21.4-.81.97-1.3,21.05-.19,43.79.01,63.51,1.94,2.15.21,2.14-1.31,2.27-1.3,2.35.29,2.85.03,4.54,2.27l-1.3,32.08c-7.08,1.11-2.87,11.57-2.59,17.5-1.03-.05-1.72-.51-2.59-.97l-2.59-19.44h4.54c-5.97-3.08-4.61-7.02-7.13-11.02-1.54-2.44-4.74-5.24-6.16-8.1-1.67,1.02.92,3.5-1.3,4.54-2.64,1.24-33.58-2.61-39.53,0l-.65-4.54c-1.13,2.22-5.19,5.89-6.16,7.45-2.89,4.67-.74,7.98-7.13,11.02,1.81,2.3,3.57-3.41,3.89,1.94.26,4.42-2.96,16.05-3.24,19.44-.51,6.12.83,17.56,0,22.68-.25,1.53-2.65-.45-3.24,1.3-1.35,3.97-.74,16.76,3.89,19.12-.1.03.2,1.45-.97,1.94-.24.1-4.23.53-5.18.65-12.25,1.47-26.73-.37-39.21,1.62l33.05-9.07c-27.37-53.75-22.15-117.77,7.13-169.48C190.87-28.02,462.27,56.05,445.57,255.35Z" fill="#fdfdfc"/>
        <g>
          <g>
            <path d="M417.05,224.89c-.1.72.42.54.65.65l-68.7.65c.06-.04.58-1.02.65-1.3,11.48-2.3,43.56-.37,57.68-.65,1.8-.04,8.34,1.82,9.72.65Z" fill="#1097b1"/>
            <path d="M386.92,235.91c1.04.46,14.32-1.27,12.64,1.62-.33.57-12.62-.11-12.64-1.62Z" fill="#056983"/>
            <path d="M369.42,235.91c1.35-.66,10.98.25,13.29.32-1.16,1.71-17.03,1.5-13.29-.32Z" fill="#056983"/>
          </g>
          <g>
            <path d="M161.7,224.89c.07,2.55,1.17.68,1.3.65.19-.05.44.01.65,0v.65c-.13-.02-.12,1.51-2.27,1.3-19.73-1.93-42.47-2.13-63.51-1.94-.57.48.03,1.09-.97,1.3l-.65-.65.97-1.3c2.67.63,5.6-.58,8.1-.65,18.59-.52,37.69.93,56.38.65Z" fill="#1097b1"/>
            <path d="M132.21,235.91c3.19.47,8.11-.65,11.02,0,6.94,1.55-11.21,2.57-11.02,0Z" fill="#056983"/>
            <path d="M114.71,235.91c.57-.28,11.42-.52,12.64.97-1.14.54-16.63.96-12.64-.97Z" fill="#056983"/>
            <path d="M96.89,226.84c-.93.19-1.97.77-.65-.65l.65.65Z" fill="#00426d"/>
          </g>
          <g>
            <path d="M199.94,180.17c-2.86,1.77-7.62,1.32-8.75,6.48-1.51-8.37,8.71-9.74,10.69-14.26,4.09,4.76,3.39,4.49-1.94,7.78Z" fill="#056983"/>
            <g>
              <path d="M253.41,140.64c3.93-.05,30.19.58,31.76,1.3.18.08,1.09,2.92,1.62,3.56l-61.25.32c-.37-.72,2.37-3.8,2.59-3.89,2.29-.88,21.34-1.24,25.28-1.3Z" fill="#0b809e"/>
              <path d="M253.41,141.93c1.45-.47,5.93-.1,7.45.97l-8.1.32c-.64-.32.45-1.23.65-1.3Z" fill="#fdfdfc"/>
            </g>
          </g>
        </g>
      </g>
      <g>
        <path d="M191.51,221c.84.32,2.47-.59,3.24.97-1.53,10.96-.07,22.07-.65,33.05,0,.14-1.29,2.45-1.3,2.59-.18,2.6,1.06,13.06.65,13.61-.65.87-3.27-.23-3.89.65-.65.93-.94,20.89-.65,22.68.48,2.96,5.94,16.42,9.72,16.53-.39,1.93.93,9.52-.97,10.37-1.5.66-29.05.26-32.73,0-.36-2.16,1.92-2.51,2.59-5.51.35-1.57.44-13.48,0-14.26s-2.16.1-2.59-.65c-.57-1-.48-19.51-.65-23.01,1.61.07,2.66-2.07,3.89-.32.68,5.03-1.5,12.32,1.3,16.2.04-1.4-.05-2.82,0-4.21l11.67-5.83c.52,16.42,2.14,4.67,2.59-2.92,1.18-19.9-.88-40.9,0-60.92.54-1.36,6.68.55,7.78.97Z" fill="#fdfdfc"/>
        <path d="M315.3,310.44c-1.67,3.54.01,6.46-.65,10.37-.3,1.79-1,3.98-2.59,5.18-3.27,2.48-10.45.59-14.91.65.34-2.33-2.73-2.99-3.24-4.21-.47-1.13,1.38-.96,1.3-1.3-.14-.56-1.29-.26-1.3-.32-.1-.62.09-1.32,0-1.94,1.59-1.14-.11-6.36.97-7.13,1.35-.95,16.98,1.29,20.42-1.3Z" fill="#056983"/>
        <path d="M192.16,220.35c-.4.11-.73,0-.65.65-1.1-.42-7.23-2.33-7.78-.97-.88,20.02,1.18,41.02,0,60.92-.45,7.58-2.08,19.34-2.59,2.92-.67-21.44.5-43.02,0-64.49-.64-1.3-2.71-.65-3.24-1.94s0-26.22.65-27.87c.67-.78,1.66-1.27,2.59-1.62.64-.24,2.29.12,3.24,0,3.19-.41,5.39-1.18,8.43.97l-.65,31.43Z" fill="#056983"/>
        <path d="M328.91,187.95c1.35.17,3.09-.06,3.24,0,1.01.44,2.31,1.11,2.59,2.27.39,1.58.52,25.96,0,27.22s-2.6.64-3.24,1.94c-.52,21.03.69,42.18,0,63.19-.1,3.01,1.21,9.33-1.94,10.05l-.65-72.59h-8.43c1.27-7.32-2.76-24.21-.65-30.46,1.13-3.34,6.69-1.91,9.07-1.62Z" fill="#056983"/>
        <path d="M192.16,119.25c.72,3.45,3.07,3.1,2.59-.65,33.27-2.37,89.59-1.59,123.14.65.63,3.8,2.09,3.05,3.24,0,5.33.91,9.92,2.67,11.02,8.75,3.14,17.45-3.46,41.82,0,59.95-.15-.06-1.89.17-3.24,0-2.26-17.55,3.02-43.37,0-59.95-.48-2.64-3.66-7.7-6.81-6.81-1.01.29-4.02,8.07-5.18-.65l-120.55-.65c-2.84,10.97-5.53-6.87-11.99,6.81v61.25c-.95.12-2.6-.24-3.24,0l-.65-58.65c1.39-7.79,4.74-8.9,11.67-10.05Z" fill="#056983"/>
        <path d="M293.91,318.87c.09.62-.1,1.33,0,1.94l-74.21.65c-1.62-.71-.37-9.92.65-10.37h71.94c2.75,1.74,1.2,5.04,1.62,7.78Z" fill="#fdfdfc"/>
        <g>
          <path d="M315.3,310.44c-3.43,2.59-19.07.35-20.42,1.3-1.08.77.62,5.99-.97,7.13-.42-2.74,1.13-6.04-1.62-7.78h-71.94c-1.02.45-2.26,9.66-.65,10.37l74.21-.65c.01.07,1.15-.23,1.3.32.09.33-1.76.17-1.3,1.3.51,1.23,3.58,1.89,3.24,4.21-26.66.35-53.37-.26-80.04,0,2.44-4.82-.97-9.3.65-14.91l-19.12-.65c-3.78-.11-9.24-13.57-9.72-16.53-.29-1.8,0-21.76.65-22.68.62-.87,3.24.23,3.89-.65.41-.55-.82-11.01-.65-13.61,0-.14,1.29-2.45,1.3-2.59.58-10.98-.88-22.1.65-33.05-.77-1.56-2.4-.65-3.24-.97-.08-.64.25-.54.65-.65,1.22-.33,4.05-.58,4.54-1.62l3.24-38.56c5.33-3.29,6.04-3.01,1.94-7.78,1.36-3.09,1.46-8.62,3.89-11.99,1.8-2.49,4.4-2.72,5.83-4.54,1.56-1.98,2.67-8.82,7.45-10.05.71.32-3.03,8.07-.65,9.07h76.48v-8.43c4.11,1.79,5.23,8.05,6.81,10.05,1.06,1.34,3.47,1.08,5.18,3.24,3.07,3.85,3.02,11.84,4.54,14.26,1.16,1.85,12.75,4.7,10.05,12.64-.94-3.66-4.05-6.81-8.1-6.16,2.86,12.62,2.33,25.41,3.24,38.24.02.23,1.9.62,1.94,1.3,1.13,16.33.02,34.65.65,51.2,6.3.32,3.46,7.14,3.89,12.31,1.52,18.08-1.35,13.29-7.78,26.9Z" fill="#0b809e"/>
          <g>
            <path d="M232.02,176.28c24.75-1.37,49.99.19,74.53,2.59l1.62,34.03c-1.29,2.49-32.14,3.44-36.62,3.56-8.9.25-60.75.25-65.46-2.59-3.98-2.4.02-28.9-.97-34.03.64-1.19,23.82-3.39,26.9-3.56Z" fill="#fdfdfc"/>
            <path d="M224.89,159.43c24.97-1.45,51.41.83,76.48.65l4.86,10.05c-32.92-2.31-65.95-3.28-98.84.32.8-12.11,7.49-10.44,17.5-11.02Z" fill="#fdfdfc"/>
            <path d="M221.97,290.35c-11.13-2.88-25.84-1.32-29.16-15.23,4.9,1.67,19.41,2.11,23.01,4.21.54.32,5.39,9.53,6.16,11.02Z" fill="#fdfdfc"/>
            <path d="M318.22,274.79c2.65.75-2.31,8.58-3.89,9.72-4.05,2.94-17.72,5.05-23.01,4.86,4.74-14.3,15.02-10.55,26.9-14.58Z" fill="#fdfdfc"/>
            <path d="M199.62,256.65c11.35,1.55,14.37,8.18,19.12,17.17-11.3,1.15-24.61-2.17-19.12-17.17Z" fill="#fdfdfc"/>
            <path d="M311.74,256.65c1.13.02,1.55-.04,2.27.97,2.52,16.42-7.4,15.11-19.77,17.17,2.45-6.8,9.13-18.28,17.5-18.15Z" fill="#fdfdfc"/>
            <path d="M198.32,237.85c10.04,1.26,11.46,10.43,12.96,18.79-10.84-4.08-14.2-6.42-12.96-18.79Z" fill="#fdfdfc"/>
            <path d="M313.03,237.85c.57.03,1.29-.23,1.62.32,1.19,12.37-2.42,13.92-12.64,18.47-.84-5.29,4.95-19.07,11.02-18.79Z" fill="#fdfdfc"/>
            <path d="M313.03,225.54l1.62.32c2.05,7.28-1.67,6.87-7.45,8.75-.49-.26,3.69-9.18,5.83-9.07Z" fill="#fdfdfc"/>
            <path d="M198.97,225.54c2.42-1.08,7.27,6.63,5.83,9.07-5.36-2.07-9.09-2.02-5.83-9.07Z" fill="#fdfdfc"/>
            <path d="M315.63,272.85l4.86.32c-.62.74-5.71,2.13-4.86-.32Z" fill="#4facc9"/>
            <path d="M193.13,272.85c.54.06,2.21-.23,2.27.32.04.4-2.92.77-2.27-.32Z" fill="#63c7e3"/>
            <g>
              <path d="M218.41,232.02h76.48c-1.05,6.14-7.08,40.68-11.67,42.13h-53.79c-3.25-1.24-11.47-36.62-11.02-42.13Z" fill="#fdfdfc"/>
              <g>
                <path d="M222.3,235.91l69.02,1.62c-22.57,4.75-46.79,4.64-69.35.65l.32-2.27Z" fill="#056983"/>
                <path d="M223.59,242.39l66.43,1.62c-16.6,3.18-36.56,4.07-53.47,2.92-1.1-.07-19.97-1.74-12.96-4.54Z" fill="#056983"/>
                <path d="M224.89,248.87l63.84,1.62c-3.14,1.94-7.59,2.02-11.34,2.27-11.94.79-30.93.95-42.77,0-1.37-.11-14.17-.88-9.72-3.89Z" fill="#056983"/>
                <path d="M230.72,268.31h51.85c.46.32.47,2.36.32,2.92-.89,3.31-45.94.41-51.52,1.62l-.65-4.54Z" fill="#056983"/>
                <path d="M226.19,255.35c2.99-1.89,53.21,1.45,60.92,0,1.98,3.77-5.59,3.62-8.43,3.89-9.84.92-38.02,1.35-47.31,0-.89-.13-8.86-1.56-5.18-3.89Z" fill="#056983"/>
                <path d="M231.37,261.83c4.66-.66,51.55-1.49,53.79,0,4.18,2.78-6.19,3.79-7.13,3.89-8.15.88-39.24,1.29-46.66,0-1.41-.24-3.54-.6-4.21-2.27,0-.99,3.49-1.52,4.21-1.62Z" fill="#056983"/>
              </g>
            </g>
            <g>
              <path d="M221,277.39l72.26.97c-8.59,21.28-25.22,23.66-46.34,21.71-15.37-1.42-20.49-7.7-26.9-21.06l.97-1.62Z" fill="#fdfdfc"/>
              <path d="M222.3,279.98l68.37.32c-2.87,4.38-6.51,12.25-11.99,13.93-4.86,1.49-41.76,1.17-46.02-.65-4.47-1.91-8.19-9.46-10.37-13.61Z" fill="#0b809e"/>
            </g>
            <g>
              <path d="M221.97,290.35c.69,1.33,4.69,5,1.62,6.48-.7.34-13.83-1-15.55-1.3-3.41-.58-6.1-3.34-9.07-1.3-.7-4.23-5.82-2.26-4.21-8.1l27.22,4.21Z" fill="#fdfdfc"/>
              <path d="M219.71,292.94c1.33-.32,2.47.37,3.56.97-1.27,1.88-6.52-.25-3.56-.97Z" fill="#0b809e"/>
            </g>
            <g>
              <path d="M314.98,285.81c1.35-.04,2.65-.36,3.56.97,1.86,5.07-14.92,8.93-18.47,9.4-1.93.25-11.27,1.53-11.99-.32-2.13-5.54,13.05-6.12,16.53-6.81,2.53-.5,8.46-3.19,10.37-3.24Z" fill="#fdfdfc"/>
              <path d="M291,292.94c.46-.17,3.2-.4,2.92.97l-3.56.32c-.63-.32.43-1.22.65-1.3Z" fill="#4facc9"/>
            </g>
          </g>
        </g>
      </g>
      <g>
        <path d="M94.95,224.89c-.45,1.32-3.49,2.31-3.89,3.56-.66,2.09-1.56,30.45-.65,31.76.43.62,4.52,0,5.18,1.3.36.69-.23,14.36-.65,15.55-.19.54-3.07.99-3.24.97-.2-.02-3.77-.81-3.89-.97-1.73-2.46,1.19-17.72,1.3-21.39.16-5.68-1.25-26.63,1.62-29.49.75-.75,3.01-1.61,4.21-1.3Z" fill="#056983"/>
        <path d="M166.89,260.54c.13-.02,2.47-.05,2.59,0,2.91,1.32,2.22,11.77,1.94,15.23-.02.23-1.89.62-1.94,1.3-.33,4.15.16,8.47,0,12.64-.05,1.39.04,2.81,0,4.21-2.8-3.88-.62-11.17-1.3-16.2-1.23-1.74-2.28.39-3.89.32-.28-5.93-4.49-16.39,2.59-17.5Z" fill="#056983"/>
        <path d="M169.48,260.54c-.12-.05-2.46-.02-2.59,0l1.3-32.08c-1.69-2.23-2.18-1.98-4.54-2.27v-.65c2.8-.19,5.59.26,6.48,3.56,1.8,6.72-.91,23.73-.65,31.43Z" fill="#056983"/>
        <g>
          <path d="M164.29,278.04c.17,3.5.08,22.01.65,23.01.43.75,2.16-.1,2.59.65s.35,12.68,0,14.26c-.67,3-2.95,3.35-2.59,5.51-.06,0,.25,1.81-.65.97l-.97-2.92c-15.69.8-33.84-2.26-49.26-1.3-.16.01-1.96,1.89-2.59,1.94-6.15.54-8.69-.6-14.58,1.3-4.63-2.36-5.24-15.15-3.89-19.12.59-1.74,2.99.23,3.24-1.3.83-5.13-.51-16.57,0-22.68.29-3.4,3.5-15.02,3.24-19.44-.32-5.35-2.08.36-3.89-1.94,6.39-3.03,4.24-6.35,7.13-11.02.97-1.57,5.03-5.24,6.16-7.45l.65,4.54c5.95-2.61,36.89,1.24,39.53,0,2.22-1.04-.38-3.52,1.3-4.54,1.41,2.86,4.62,5.66,6.16,8.1,2.52,4,1.16,7.94,7.13,11.02h-4.54l2.59,19.44c.87.46,1.56.93,2.59.97Z" fill="#0b809e"/>
          <g>
            <path d="M122.49,254.06c11.05-.42,22.04,1.05,33.05,1.3,1.37.61,2.16,16.42.97,17.82-1.73,2.04-51.38,2-53.47.32s-.41-13.5-.97-16.53c.77-1.82,17.58-2.81,20.42-2.92Z" fill="#fdfdfc"/>
            <path d="M110.18,244.98c4.05-.55,40.86-.31,42.77.65.72.36,3.09,4.64,2.92,4.86-1.58,2.03-45.08-2.69-51.52.97-2.01-4.53,1.69-5.91,5.83-6.48Z" fill="#fdfdfc"/>
            <path d="M96.57,302.66c8.1,1.62,14.04,2.16,15.88,11.34-.97,1.17-21.04-1.64-15.88-5.51l13.93,2.27c-3.93-2.33-16.38-.71-13.93-8.1Z" fill="#fdfdfc"/>
            <path d="M163.97,302.66c6.53,1.63-10.49,8.91-12.64,7.45,2.39,2.37,11.25-2.56,12.64-1.62,4.79,3.23-15.2,7.13-16.53,4.86,3.36-.96,2.22-6.11,5.51-8.1.48-.29,10.47-2.73,11.02-2.59Z" fill="#fdfdfc"/>
            <path d="M99.81,293.59c2.52-.95,9.52,5.46,9.4,8.75-5.28,3.52-14.45-6.85-9.4-8.75Z" fill="#fdfdfc"/>
            <path d="M160.08,293.59l1.62.97c1,7.55-4.03,6.95-9.4,8.75-2.68-.78,4.11-10.41,7.78-9.72Z" fill="#fdfdfc"/>
            <path d="M99.16,284.52c5.07.78,5.63,4.88,6.48,9.07-4.98-1.41-8.4-3.36-6.48-9.07Z" fill="#fdfdfc"/>
            <path d="M160.73,284.52c.57.03,1.28-.23,1.62.32,1.01,5.61-1.9,6.47-6.16,8.75-2.11-.13,1.67-9.22,4.54-9.07Z" fill="#fdfdfc"/>
            <path d="M98.51,279.98l4.21,2.27c-1.37,1.68-5.89-1.29-4.21-2.27Z" fill="#c6ebf8"/>
            <path d="M160.73,279.98c3.59-.74,1.77,3.66-1.94,2.59-.42-.61,1.79-2.56,1.94-2.59Z" fill="#fdfdfc"/>
            <g>
              <path d="M110.83,284.52h39.53c.87.5-3.51,18.24-5.83,18.79h-28.52c-1.93-.42-6.65-17.69-5.18-18.79Z" fill="#fdfdfc"/>
              <path d="M114.07,291c2.39-1.29,28.61.5,33.38.97-7.82,1.87-19.49,2.53-27.54,1.62-.61-.07-8.84-.97-5.83-2.59Z" fill="#056983"/>
              <path d="M113.42,287.11l34.67.97c-.02,2.16-31.26,1.95-34.03.97-.49-.17-1.53-1.47-.65-1.94Z" fill="#056983"/>
              <path d="M115.36,294.89l30.78.97c-5.01,1.16-12.04,1.74-17.17,1.62-3.28-.07-12.25-.05-13.61-2.59Z" fill="#025772"/>
              <path d="M116.66,298.77l27.54.97c0,1.35-25.63,1.42-26.9.97-.49-.17-1.54-1.5-.65-1.94Z" fill="#056983"/>
            </g>
            <g>
              <path d="M110.83,303.96l39.86.97c-3.02,12.56-26.17,14.24-34.67,8.75-1.04-.67-7.64-8.79-5.18-9.72Z" fill="#fdfdfc"/>
              <path d="M111.47,305.26l37.27.97c-1.06,2.03-3.89,6.24-6.16,6.81-1.32.33-23.3.33-24.63,0-2.37-.59-5.77-5.46-6.48-7.78Z" fill="#0b809e"/>
            </g>
          </g>
        </g>
      </g>
      <g>
        <path d="M349.65,224.89c-.07.27-.59,1.26-.65,1.3-.66.43-2.87.99-3.24,2.27-.44,1.49-1.14,29.63-.65,31.11.64,1.93,4.98,0,5.83,1.94.31.71-.35,14.79-.65,15.55-.71,1.8-4.77-.83-5.18,0-.73,1.46-.29,13.05-.65,15.55-1.22.5-1.26-4.94-1.3-5.51-.55-9.2-1.12-51.39.65-58.01.68-2.56,3.55-3.76,5.83-4.21Z" fill="#056983"/>
        <path d="M421.59,278.04c-.66-.02-2.24.26-2.59-.32.37-2.83-1.97-13.83-1.3-15.55.86-2.22,4.11-1.31,4.54-1.94.87-1.29.41-29.61,0-31.11-.67-2.46-2.71-2.67-4.54-3.56-.23-.11-.75.07-.65-.65l.65-.65c2.28,1.12,5.73,2.03,6.48,4.86,1.54,5.82-.46,23.5,0,31.11.02.31,1.92,1.63,1.94,1.94.15,1.8.43,14.3,0,14.91-.13.19-4.3.98-4.54.97Z" fill="#056983"/>
        <g>
          <path d="M426.77,324.05c-2.5,0-7.69,1.74-10.05.65-.98-.45-1.31-4.05-2.59-4.54-1.62-.62-9.01.27-11.67,0-11.24-1.16-24.46-2.14-36.29-1.94-1,.02-1.81,1.94-1.94,1.94-3.17.06-12.62.06-15.23-.65-3.63-.99-3.62-16.03-2.59-17.82.43-.75,2,.1,2.59-.65.68-.87-1.45-19.93,0-22.04.56-.81,3.16.38,3.89-1.3,1-2.28.17-17.36.97-21.06-10.11,4.15.99-2.49,1.62-3.56.33-.57.66-5.05,1.94-7.13.96-1.55,5.04-5.24,6.16-7.45l1.3,4.54c5.78-2.8,36.13,1.29,38.89,0,1.79-.84.41-3.88,1.3-4.54,1.21,2.92,5.6,6.2,6.81,8.1s.98,5.89,1.3,6.48c.74,1.37,7.21,3.09,5.51,6.16l-3.89-2.59-.32,1.62,3.89,42.77c.43.75,2.16-.1,2.59.65.93,1.62,1.54,20.39-4.54,18.79v2.59l10.37.97Z" fill="#0b809e"/>
          <g>
            <path d="M376.55,254.06c4.29-.15,32.54.5,34.35,1.94l.97,16.53-53.47,1.62c-3.62-5.13-.3-11.93-.97-17.82.48-1.08,16.87-2.19,19.12-2.27Z" fill="#fdfdfc"/>
            <path d="M363.58,244.98c12.19-2.18,31.84,1.21,44.72.65l2.27,5.51-51.52.32c-1.28-3.87,1.27-5.9,4.54-6.48Z" fill="#fdfdfc"/>
            <path d="M348.68,302.02c9.19,2.4,13.58,1.73,17.82,11.34-.27,1.77-19.67-.24-16.85-5.18.51-.89,2.88,1.21,3.24,0,.11-.38-5.56-3.45-4.21-6.16Z" fill="#fdfdfc"/>
            <path d="M352.57,293.59c6.12.6,7.54,3.91,10.05,8.75-5.81.92-13.72-1.89-10.05-8.75Z" fill="#fdfdfc"/>
            <path d="M418.03,302.66c5.34,3.19-12.67,9.69-13.93,6.16s13.24-6.57,13.93-6.16Z" fill="#fdfdfc"/>
            <path d="M412.19,294.24c3.97-.28,3.8,3.8,2.27,6.16-1.23,1.89-6.9,1.69-8.75,2.92-2.66-.75,3.71-8.88,6.48-9.07Z" fill="#fdfdfc"/>
            <path d="M416.08,308.5c1.49.06,1.86-.19,1.62,1.62-.45,3.49-13.98,4.3-16.85,3.24-.63-1.03,14.42-4.89,15.23-4.86Z" fill="#fdfdfc"/>
            <path d="M414.14,284.52c4.42.3-.61,8.99-4.54,9.07-2.71-2.22,2.74-9.2,4.54-9.07Z" fill="#fdfdfc"/>
            <path d="M352.57,284.52c3.96,1.57,5.85,4.72,5.18,9.07-4.15-2.3-8.65-3.21-5.18-9.07Z" fill="#fdfdfc"/>
            <path d="M351.92,279.98c1.77-.32,2.47,1.37,3.56,2.27-1.63,1.94-6.15-1.8-3.56-2.27Z" fill="#c6ebf8"/>
            <path d="M414.78,279.98c3.19-.06.22,2.89-1.94,3.24-1.39-1.39,1.36-3.23,1.94-3.24Z" fill="#fdfdfc"/>
            <g>
              <path d="M363.58,284.52h39.53c1.12.84-2.7,18.15-5.18,18.79h-28.52c-1.92-.6-6.71-18.34-5.83-18.79Z" fill="#fdfdfc"/>
              <path d="M367.47,291c2.07-1.12,28.31.25,32.73.97-7.28,2.07-18.57,2.41-26.25,1.62-.64-.07-9.6-.91-6.48-2.59Z" fill="#056983"/>
              <path d="M366.83,287.11l34.67.97c-8.66,1.85-20.61,2.52-29.49,1.62-1.37-.14-7.94-.68-5.18-2.59Z" fill="#056983"/>
              <path d="M368.77,294.89l30.78.97c-4.59,1.19-11.13,1.66-15.88,1.62-.97,0-18.73-.68-14.91-2.59Z" fill="#025772"/>
              <path d="M370.07,298.77l27.54.97c0,1.35-25.63,1.42-26.9.97-.49-.17-1.54-1.5-.65-1.94Z" fill="#056983"/>
            </g>
            <g>
              <path d="M363.58,303.96l40.51,1.62c-6.12,14.76-37.03,15.62-40.51-1.62Z" fill="#c6ebf8"/>
              <path d="M364.88,305.26l37.91.32c-1.36,2.05-4.36,6.84-6.81,7.45-1.32.33-23.31.33-24.63,0-2.38-.59-5.58-5.52-6.48-7.78Z" fill="#0b809e"/>
            </g>
          </g>
        </g>
      </g>
    </g>
  </g>
</svg>